<svg width="66" height="104" viewBox="0 0 66 104" fill="none" xmlns="http://www.w3.org/2000/svg">
<rect x="30.252" y="0.509644" width="3.05551" height="3.05551" fill="#141313"/>
<rect x="15.2988" y="0.509644" width="3.05551" height="3.05551" fill="#141313"/>
<rect y="0.509644" width="3.05551" height="3.05551" fill="#141313"/>
<rect x="47.5664" y="0.000244141" width="3.05551" height="3.05551" transform="rotate(30 47.5664 0.000244141)" fill="#141313"/>
<rect x="64.4727" y="0.000244141" width="3.05551" height="3.05551" transform="rotate(60 64.4727 0.000244141)" fill="#141313"/>
<rect x="30.252" y="14.683" width="3.05551" height="3.05551" fill="#141313"/>
<rect x="15.2988" y="14.683" width="3.05551" height="3.05551" fill="#141313"/>
<rect y="14.683" width="3.05551" height="3.05551" fill="#141313"/>
<rect x="47.5664" y="14.1738" width="3.05551" height="3.05551" transform="rotate(30 47.5664 14.1738)" fill="#141313"/>
<rect x="64.4727" y="14.1738" width="3.05551" height="3.05551" transform="rotate(60 64.4727 14.1738)" fill="#141313"/>
<rect x="30.252" y="28.8568" width="3.05551" height="3.05551" fill="#141313"/>
<rect x="15.2988" y="28.8568" width="3.05551" height="3.05551" fill="#141313"/>
<rect y="28.8568" width="3.05551" height="3.05551" fill="#141313"/>
<rect x="47.5176" y="28.3477" width="3.05551" height="3.05551" transform="rotate(30 47.5176 28.3477)" fill="#141313"/>
<rect x="64.4727" y="28.3477" width="3.05551" height="3.05551" transform="rotate(60 64.4727 28.3477)" fill="#141313"/>
<rect x="30.252" y="43.0309" width="3.05551" height="3.05551" fill="#141313"/>
<rect x="15.2988" y="43.0309" width="3.05551" height="3.05551" fill="#141313"/>
<rect y="43.0309" width="3.05551" height="3.05551" fill="#141313"/>
<rect x="47.5664" y="42.5215" width="3.05551" height="3.05551" transform="rotate(30 47.5664 42.5215)" fill="#141313"/>
<rect x="64.4727" y="42.5215" width="3.05551" height="3.05551" transform="rotate(60 64.4727 42.5215)" fill="#141313"/>
<rect x="30.252" y="57.2047" width="3.05551" height="3.05551" fill="#141313"/>
<rect x="15.2988" y="57.2047" width="3.05551" height="3.05551" fill="#141313"/>
<rect y="57.2047" width="3.05551" height="3.05551" fill="#141313"/>
<rect x="47.5664" y="56.6957" width="3.05551" height="3.05551" transform="rotate(30 47.5664 56.6957)" fill="#141313"/>
<rect x="64.4727" y="56.6957" width="3.05551" height="3.05551" transform="rotate(60 64.4727 56.6957)" fill="#141313"/>
<rect x="30.252" y="71.3784" width="3.05551" height="3.05551" fill="#141313"/>
<rect x="15.2988" y="71.3784" width="3.05551" height="3.05551" fill="#141313"/>
<rect y="71.3784" width="3.05551" height="3.05551" fill="#141313"/>
<rect x="47.5176" y="70.8694" width="3.05551" height="3.05551" transform="rotate(30 47.5176 70.8694)" fill="#141313"/>
<rect x="64.4727" y="70.8694" width="3.05551" height="3.05551" transform="rotate(60 64.4727 70.8694)" fill="#141313"/>
<rect x="30.252" y="85.5531" width="3.05551" height="3.05551" fill="#141313"/>
<rect x="15.2988" y="85.5531" width="3.05551" height="3.05551" fill="#141313"/>
<rect y="85.5531" width="3.05551" height="3.05551" fill="#141313"/>
<rect x="47.5664" y="85.0437" width="3.05551" height="3.05551" transform="rotate(30 47.5664 85.0437)" fill="#141313"/>
<rect x="64.4727" y="85.0437" width="3.05551" height="3.05551" transform="rotate(60 64.4727 85.0437)" fill="#141313"/>
<rect x="30.252" y="99.7264" width="3.05551" height="3.05551" fill="#141313"/>
<rect x="15.2988" y="99.7264" width="3.05551" height="3.05551" fill="#141313"/>
<rect y="99.7264" width="3.05551" height="3.05551" fill="#141313"/>
<rect x="47.5664" y="99.2173" width="3.05551" height="3.05551" transform="rotate(30 47.5664 99.2173)" fill="#141313"/>
<rect x="64.4727" y="99.2173" width="3.05551" height="3.05551" transform="rotate(60 64.4727 99.2173)" fill="#141313"/>
</svg>
