<svg width="462" height="467" viewBox="0 0 462 467" fill="none" xmlns="http://www.w3.org/2000/svg">
<g clip-path="url(#clip0_1211_3859)">
<path d="M446.964 27.2606L445.33 22.4405C444.428 19.7784 442.327 17.6089 439.561 16.6713L434.741 15.0374C433.753 14.7026 433.753 13.3002 434.741 12.9654L439.561 11.3315C442.223 10.4291 444.392 8.3284 445.33 5.56225L446.964 0.742207C447.299 -0.245559 448.701 -0.24534 449.036 0.742207L450.67 5.56225C451.572 8.22433 453.673 10.3938 456.439 11.3315L461.259 12.9654C462.247 13.3003 462.247 14.7026 461.259 15.0374L456.439 16.6713C453.777 17.5736 451.608 19.6744 450.67 22.4405L449.036 27.2606C448.701 28.2484 447.299 28.2481 446.964 27.2606ZM438.499 14.0014L440.263 14.5993C443.557 15.7159 446.242 18.3152 447.402 21.7381L448 23.502L448.598 21.7381C449.715 18.4441 452.314 15.7596 455.737 14.5993L457.501 14.0014L455.737 13.4034C452.443 12.2868 449.758 9.68744 448.598 6.26455L448 4.50061L447.402 6.26455C446.285 9.5586 443.686 12.2431 440.263 13.4034L438.499 14.0014Z" fill="#141313"/>
</g>
<g clip-path="url(#clip1_1211_3859)">
<path d="M10.186 466.419L8.9022 462.631C8.19317 460.54 6.5427 458.835 4.36925 458.098L0.582028 456.815C-0.194074 456.552 -0.193945 455.45 0.582028 455.187L4.36925 453.903C6.46088 453.194 8.16545 451.543 8.9022 449.37L10.186 445.583C10.4491 444.807 11.551 444.807 11.814 445.583L13.0978 449.37C13.8069 451.462 15.4573 453.166 17.6308 453.903L21.418 455.187C22.1941 455.45 22.1939 456.552 21.418 456.815L17.6308 458.098C15.5392 458.807 13.8346 460.458 13.0978 462.631L11.814 466.419C11.5509 467.195 10.449 467.195 10.186 466.419ZM3.53518 456.001L4.92114 456.47C7.50932 457.348 9.61857 459.39 10.5302 462.08L11 463.465L11.4698 462.08C12.3472 459.491 14.3895 457.382 17.0789 456.47L18.4648 456.001L17.0789 455.531C14.4907 454.653 12.3815 452.611 11.4698 449.922L11 448.536L10.5302 449.922C9.65286 452.51 7.61051 454.619 4.92114 455.531L3.53518 456.001Z" fill="#141313"/>
</g>
<defs>
<clipPath id="clip0_1211_3859">
<rect width="28" height="28" fill="white" transform="translate(434)"/>
</clipPath>
<clipPath id="clip1_1211_3859">
<rect width="22" height="22" fill="white" transform="translate(0 445)"/>
</clipPath>
</defs>
</svg>
